<?xml version="1.0" standalone="no"?>
<!DOCTYPE svg PUBLIC "-//W3C//DTD SVG 20010904//EN"
 "http://www.w3.org/TR/2001/REC-SVG-20010904/DTD/svg10.dtd">
<svg version="1.0" xmlns="http://www.w3.org/2000/svg"
 width="300.000000pt" height="300.000000pt" viewBox="0 0 300.000000 300.000000"
 preserveAspectRatio="xMidYMid meet">

<g transform="translate(0.000000,300.000000) scale(0.100000,-0.100000)"
fill="#000000" stroke="none">
<path d="M1390 2994 c-503 -45 -930 -313 -1185 -745 -131 -222 -199 -476 -199
-749 0 -206 30 -364 105 -555 162 -416 534 -755 966 -880 273 -80 573 -80 846
0 432 125 804 464 966 880 75 191 105 349 105 555 0 345 -107 654 -318 923
-229 292 -558 489 -924 551 -92 16 -286 27 -362 20z m426 -628 l169 -34 25 23
c38 34 64 45 112 45 83 0 148 -66 148 -150 0 -160 -213 -208 -285 -65 -11 22
-21 42 -23 44 -2 4 -306 71 -308 68 -2 -3 -94 -443 -94 -449 0 -4 28 -9 63
-13 150 -16 330 -74 441 -141 l59 -36 51 26 c154 78 326 -22 326 -189 0 -68
-24 -120 -78 -166 -39 -34 -39 -34 -44 -121 -4 -77 -9 -97 -45 -170 -79 -158
-245 -289 -453 -356 -354 -116 -762 -58 -1027 145 -67 51 -146 141 -178 203
-24 46 -45 134 -47 200 -2 64 -3 66 -41 93 -55 40 -91 121 -85 192 13 160 181
252 324 179 l52 -26 60 35 c128 75 288 125 452 142 l65 6 54 257 c30 141 58
265 63 275 13 25 50 22 244 -17z"/>
<path d="M1105 1489 c-98 -28 -131 -165 -59 -240 77 -81 215 -45 245 64 20 74
-27 156 -102 177 -39 11 -43 11 -84 -1z"/>
<path d="M1780 1472 c-137 -69 -85 -269 72 -275 79 -3 138 62 138 151 0 72
-71 142 -145 142 -16 0 -46 -8 -65 -18z"/>
<path d="M1137 993 c-4 -3 -7 -17 -7 -30 0 -31 72 -76 177 -109 75 -24 93 -26
215 -22 148 5 205 19 302 78 57 35 69 57 40 81 -13 10 -26 7 -82 -23 -100 -54
-160 -68 -284 -68 -122 0 -198 19 -279 71 -45 29 -69 35 -82 22z"/>
</g>
</svg>
